<mxfile host="65bd71144e">
    <diagram id="fFsjYFFQjfwlN4jyspvi" name="Page-1">
        <mxGraphModel dx="1136" dy="1047" grid="0" gridSize="10" guides="1" tooltips="1" connect="1" arrows="1" fold="1" page="0" pageScale="1" pageWidth="827" pageHeight="1169" background="#FFFFFF" math="0" shadow="0">
            <root>
                <mxCell id="0"/>
                <mxCell id="1" parent="0"/>
                <mxCell id="133" value="D" style="swimlane;startSize=0;strokeColor=#000000;fontColor=#FFFFFF;fontStyle=0" parent="1" vertex="1">
                    <mxGeometry x="264" y="-4" width="316" height="630" as="geometry"/>
                </mxCell>
                <mxCell id="134" value="&lt;font color=&quot;#000000&quot; style=&quot;font-size: 18px;&quot;&gt;Login&lt;/font&gt;" style="ellipse;whiteSpace=wrap;strokeColor=#666666;fillColor=#FFFFFF;html=1;labelBorderColor=none;labelBackgroundColor=none;fontColor=#333333;gradientColor=none;" parent="133" vertex="1">
                    <mxGeometry x="40" y="20" width="220" height="70" as="geometry"/>
                </mxCell>
                <mxCell id="135" value="&lt;span style=&quot;font-size: 18px;&quot;&gt;Create flashcard&lt;/span&gt;" style="ellipse;whiteSpace=wrap;html=1;strokeColor=#666666;labelBorderColor=none;labelBackgroundColor=none;fontColor=#333333;fillColor=#FFFFFF;" parent="133" vertex="1">
                    <mxGeometry x="40" y="130" width="220" height="70" as="geometry"/>
                </mxCell>
                <mxCell id="136" value="&lt;font style=&quot;font-size: 18px;&quot;&gt;Update flashcard&lt;/font&gt;" style="ellipse;whiteSpace=wrap;html=1;strokeColor=#666666;fillColor=#FFFFFF;fontColor=#333333;" parent="133" vertex="1">
                    <mxGeometry x="40" y="230" width="220" height="70" as="geometry"/>
                </mxCell>
                <mxCell id="137" value="&lt;font style=&quot;font-size: 18px;&quot; color=&quot;#000000&quot;&gt;Delete flashcard&lt;/font&gt;" style="ellipse;whiteSpace=wrap;html=1;strokeColor=#36393d;fillColor=#FFFFFF;" parent="133" vertex="1">
                    <mxGeometry x="40" y="330" width="220" height="70" as="geometry"/>
                </mxCell>
                <mxCell id="138" value="&lt;font style=&quot;font-size: 18px;&quot; color=&quot;#000000&quot;&gt;Read flashcard&lt;/font&gt;" style="ellipse;whiteSpace=wrap;html=1;fillColor=#FFFFFF;strokeColor=#36393d;" parent="133" vertex="1">
                    <mxGeometry x="40" y="430" width="220" height="70" as="geometry"/>
                </mxCell>
                <mxCell id="139" value="&lt;font style=&quot;font-size: 18px;&quot; color=&quot;#000000&quot;&gt;Logout&lt;/font&gt;" style="ellipse;whiteSpace=wrap;html=1;strokeColor=#36393d;fillColor=#FFFFFF;" parent="133" vertex="1">
                    <mxGeometry x="40" y="530" width="220" height="70" as="geometry"/>
                </mxCell>
                <mxCell id="177" value="" style="endArrow=open;endSize=12;dashed=1;html=1;exitX=1;exitY=0;exitDx=0;exitDy=0;strokeColor=#000000;" parent="133" source="135" edge="1">
                    <mxGeometry x="-0.0837" y="-48" width="160" relative="1" as="geometry">
                        <mxPoint x="156" y="315" as="sourcePoint"/>
                        <mxPoint x="239" y="76" as="targetPoint"/>
                        <Array as="points"/>
                        <mxPoint as="offset"/>
                    </mxGeometry>
                </mxCell>
                <mxCell id="178" value="&amp;lt;&amp;lt;include&amp;gt;&amp;gt;" style="text;html=1;align=center;verticalAlign=middle;resizable=0;points=[];autosize=1;strokeColor=none;fillColor=none;fontColor=#000000;" parent="133" vertex="1">
                    <mxGeometry x="229" y="97" width="84" height="26" as="geometry"/>
                </mxCell>
                <mxCell id="141" value="&lt;font color=&quot;#000000&quot;&gt;User&lt;/font&gt;" style="shape=umlActor;verticalLabelPosition=bottom;verticalAlign=top;html=1;outlineConnect=0;fontSize=18;strokeColor=#666666;fillColor=#FFFFFF;fontColor=#333333;direction=east;gradientColor=none;" parent="1" vertex="1">
                    <mxGeometry x="-4" y="259" width="70" height="108.06" as="geometry"/>
                </mxCell>
                <mxCell id="143" value="" style="endArrow=none;html=1;entryX=0;entryY=0.5;entryDx=0;entryDy=0;strokeColor=#000000;" parent="1" target="134" edge="1">
                    <mxGeometry width="50" height="50" relative="1" as="geometry">
                        <mxPoint x="67" y="317" as="sourcePoint"/>
                        <mxPoint x="470" y="270" as="targetPoint"/>
                    </mxGeometry>
                </mxCell>
                <mxCell id="160" value="&lt;font style=&quot;font-size: 24px;&quot; color=&quot;#000000&quot;&gt;USE CASE DIGRAM OF ATM SYSTEM&lt;/font&gt;" style="text;html=1;align=center;verticalAlign=middle;resizable=0;points=[];autosize=1;strokeColor=none;fillColor=none;" parent="1" vertex="1">
                    <mxGeometry x="207" y="684" width="442" height="41" as="geometry"/>
                </mxCell>
                <mxCell id="166" value="" style="endArrow=none;html=1;strokeColor=#000000;fontSize=18;fontColor=#000000;entryX=0.023;entryY=0.371;entryDx=0;entryDy=0;entryPerimeter=0;" parent="1" target="139" edge="1">
                    <mxGeometry width="50" height="50" relative="1" as="geometry">
                        <mxPoint x="66" y="317" as="sourcePoint"/>
                        <mxPoint x="399" y="282" as="targetPoint"/>
                    </mxGeometry>
                </mxCell>
                <mxCell id="168" value="" style="endArrow=none;html=1;strokeColor=#000000;entryX=0;entryY=0.5;entryDx=0;entryDy=0;" parent="1" target="135" edge="1">
                    <mxGeometry width="50" height="50" relative="1" as="geometry">
                        <mxPoint x="66" y="317" as="sourcePoint"/>
                        <mxPoint x="405" y="290" as="targetPoint"/>
                    </mxGeometry>
                </mxCell>
                <mxCell id="169" value="" style="endArrow=none;html=1;strokeColor=#000000;entryX=0;entryY=0.5;entryDx=0;entryDy=0;" parent="1" target="138" edge="1">
                    <mxGeometry width="50" height="50" relative="1" as="geometry">
                        <mxPoint x="68" y="317" as="sourcePoint"/>
                        <mxPoint x="405" y="290" as="targetPoint"/>
                    </mxGeometry>
                </mxCell>
                <mxCell id="171" value="" style="endArrow=none;html=1;strokeColor=#000000;entryX=0;entryY=0.5;entryDx=0;entryDy=0;" parent="1" target="137" edge="1">
                    <mxGeometry width="50" height="50" relative="1" as="geometry">
                        <mxPoint x="66" y="317" as="sourcePoint"/>
                        <mxPoint x="405" y="290" as="targetPoint"/>
                    </mxGeometry>
                </mxCell>
                <mxCell id="172" value="" style="endArrow=none;html=1;strokeColor=#000000;entryX=0;entryY=0.5;entryDx=0;entryDy=0;" parent="1" target="136" edge="1">
                    <mxGeometry width="50" height="50" relative="1" as="geometry">
                        <mxPoint x="67" y="317" as="sourcePoint"/>
                        <mxPoint x="405" y="290" as="targetPoint"/>
                    </mxGeometry>
                </mxCell>
                <mxCell id="176" value="" style="swimlane;startSize=0;fillColor=#000000;gradientColor=none;strokeColor=#000000;" parent="1" vertex="1">
                    <mxGeometry x="697" y="264" width="109" height="56" as="geometry"/>
                </mxCell>
                <mxCell id="162" value="&lt;font style=&quot;font-size: 18px;&quot; color=&quot;#000000&quot;&gt;System&lt;/font&gt;" style="text;html=1;align=center;verticalAlign=middle;resizable=0;points=[];autosize=1;strokeColor=none;fillColor=none;" parent="176" vertex="1">
                    <mxGeometry x="15.5" y="11" width="78" height="34" as="geometry"/>
                </mxCell>
            </root>
        </mxGraphModel>
    </diagram>
</mxfile>